<svg xmlns="http://www.w3.org/2000/svg" width="960" height="280" viewBox="0 0 960 280" role="img" aria-label="GEDIAZQ logo">
  <defs>
    <linearGradient id="gradBolt" x1="0" y1="0" x2="1" y2="1">
      <stop offset="0" stop-color="#22D3EE"/>
      <stop offset="1" stop-color="#7C3AED"/>
    </linearGradient>
    <filter id="shadow" x="-20%" y="-20%" width="140%" height="140%">
      <feDropShadow dx="0" dy="10" stdDeviation="12" flood-color="#000" flood-opacity="0.18"/>
    </filter>
  </defs>

  <g transform="translate(40,30)" filter="url(#shadow)">
    <circle cx="120" cy="110" r="96" fill="#E2E8F0"/>
    <circle cx="120" cy="110" r="96" fill="none" stroke="url(#gradBolt)" stroke-width="8"/>

    <path d="M164 82c-11-20-31-34-56-34-36 0-66 30-66 66s30 66 66 66c26 0 48-16 58-38h-46v-22h74c1 48-38 94-86 94-48 0-88-40-88-88s40-88 88-88c34 0 64 17 80 42l-24 14z"
          fill="#0B1220"/>

    <g transform="translate(64,142)">
      <rect x="0" y="0" width="112" height="64" rx="12" fill="#0F1B33" stroke="#223056" stroke-width="3"/>
      <rect x="12" y="14" width="68" height="8" rx="4" fill="#94A3B8"/>
      <rect x="12" y="30" width="88" height="8" rx="4" fill="#94A3B8" opacity="0.9"/>
      <rect x="12" y="46" width="54" height="8" rx="4" fill="#94A3B8" opacity="0.85"/>
    </g>

    <path d="M194 34 166 80h26l-18 52 64-70h-30L228 34z" fill="url(#gradBolt)"/>
  </g>

  <g transform="translate(0,120)">
    <text x="480" y="0"
          text-anchor="middle"
          font-family="ui-sans-serif, system-ui, -apple-system, Segoe UI, Roboto, Arial"
          font-size="76"
          font-weight="800"
          letter-spacing="2"
          fill="#0B1220">
      GEDIAZQ
    </text>
  </g>
</svg>
